<svg width="0" height="0" class="hidden">
  <symbol xmlns="http://www.w3.org/2000/svg" viewBox="0 0 20 20" id="protect">
    <path fill="#40474F" fill-rule="evenodd" d="M10 2l.461.264a13.18 13.18 0 0 0 6.11 1.729L17 4v4.956a6.002 6.002 0 0 1-1.951 4.428L10 18l-5.049-4.616A6.002 6.002 0 0 1 3 8.956V4a13.19 13.19 0 0 0 6.539-1.736L10 2zm-.001 1.493l-.204.114a14.486 14.486 0 0 1-5.027 1.585L4.3 5.24v3.716c0 1.237.488 2.42 1.35 3.297l.179.172 4.17 3.812L10 3.65c0-.05.006-.1.017-.147l-.018-.01zm1.3.638V15.05l2.872-2.625a4.705 4.705 0 0 0 1.523-3.222l.006-.247V5.24l-.053-.003a14.51 14.51 0 0 1-4.348-1.106z"></path>
  </symbol>
  <symbol xmlns="http://www.w3.org/2000/svg" viewBox="0 0 20 20" id="devices">
    <path fill="#40474F" fill-rule="evenodd" d="M16 16a2 2 0 0 1-2 2H7a2 2 0 0 1-2-2V4a2 2 0 0 1 2-2h7a2 2 0 0 1 2 2v12zm-1.3-.701H6.299L6.3 16c0 .354.263.647.605.694L7 16.7h7a.701.701 0 0 0 .694-.605L14.7 16v-.701zM14 3.3H7a.701.701 0 0 0-.694.605L6.3 4l-.001 9.999H14.7V4a.701.701 0 0 0-.605-.694L14 3.3z"></path>
  </symbol>
  <symbol xmlns="http://www.w3.org/2000/svg" viewBox="0 0 20 20" id="language">
    <path fill="#40474F" fill-rule="evenodd" d="M16.166 16.146l.742-1.12c-2.156-.784-3.976-1.778-5.432-2.968 1.316-1.442 2.31-3.22 2.982-5.348H16.6V5.394h-5.306A13.678 13.678 0 0 0 9.88 3l-1.33.49c.532.602.98 1.232 1.344 1.904H4.252V6.71h2.142a12.53 12.53 0 0 0 3.22 5.432C8.13 13.416 6.268 14.34 4 14.928l.714 1.176c2.31-.672 4.256-1.708 5.838-3.108 1.484 1.26 3.36 2.31 5.614 3.15zm-5.628-4.914a11.292 11.292 0 0 1-2.87-4.522h5.418c-.56 1.764-1.414 3.276-2.548 4.522z"></path>
  </symbol>
  <symbol xmlns="http://www.w3.org/2000/svg" viewBox="0 0 20 20" id="settings">
    <path fill="#40474F" fill-rule="evenodd" d="M16.875 10.475v-.956l1.2-1.05a1.25 1.25 0 0 0 .238-1.594l-1.476-2.5a1.25 1.25 0 0 0-1.48-.562l-1.52.512a7.27 7.27 0 0 0-.818-.469L12.7 2.281a1.25 1.25 0 0 0-1.25-1.006H8.525a1.25 1.25 0 0 0-1.25 1.006l-.319 1.575c-.285.138-.56.295-.825.469l-1.487-.538a1.283 1.283 0 0 0-.4-.037 1.25 1.25 0 0 0-1.081.625l-1.475 2.5a1.25 1.25 0 0 0 .256 1.569l1.181 1.081v.956l-1.181 1.05a1.25 1.25 0 0 0-.256 1.594l1.475 2.5a1.25 1.25 0 0 0 1.48.562l1.52-.512c.262.174.535.33.818.469l.319 1.575a1.25 1.25 0 0 0 1.25 1.006h2.95a1.25 1.25 0 0 0 1.25-1.006l.319-1.575c.285-.138.56-.295.825-.469l1.512.512a1.252 1.252 0 0 0 1.482-.562l1.424-2.5a1.25 1.25 0 0 0-.256-1.569l-1.181-1.081zM15.756 15l-2.143-.725a5.548 5.548 0 0 1-1.694.981l-.444 2.244h-2.95l-.444-2.219a5.846 5.846 0 0 1-1.687-.981l-2.15.7-1.475-2.5 1.7-1.5a5.54 5.54 0 0 1 0-1.956L2.769 7.5 4.244 5l2.144.725a5.531 5.531 0 0 1 1.693-.981L8.525 2.5h2.95l.444 2.219c.613.23 1.184.562 1.687.981l2.15-.7 1.475 2.5-1.7 1.5a5.54 5.54 0 0 1 0 1.956l1.7 1.544-1.475 2.5zM10 13.75A3.75 3.75 0 1 1 13.75 10 3.715 3.715 0 0 1 10 13.75zm0-6.25A2.442 2.442 0 0 0 7.5 10a2.442 2.442 0 0 0 2.5 2.5 2.442 2.442 0 0 0 2.5-2.5A2.442 2.442 0 0 0 10 7.5z"></path>
  </symbol>
  <symbol xmlns="http://www.w3.org/2000/svg" viewBox="0 0 20 20" id="help">
    <g fill="none" fill-rule="evenodd">
      <path fill="#40474F" fill-rule="nonzero" d="M10.564 11.833v-.187c0-.275.055-.517.176-.737.099-.198.253-.385.451-.561.528-.451.836-.737.935-.858.264-.352.407-.803.407-1.342 0-.66-.22-1.188-.649-1.573-.44-.396-1.012-.583-1.727-.583-.803 0-1.441.231-1.903.704-.473.462-.704 1.089-.704 1.892h1.166c0-.484.099-.869.297-1.133.22-.308.583-.462 1.078-.462.396 0 .704.11.924.33.209.22.319.517.319.902 0 .286-.099.55-.297.803l-.187.209c-.682.605-1.1 1.056-1.254 1.364-.143.286-.209.638-.209 1.045v.187h1.177zM9.97 14c.22 0 .418-.077.583-.22a.771.771 0 0 0 .231-.572.73.73 0 0 0-.231-.561c-.154-.154-.352-.22-.583-.22-.231 0-.418.066-.561.22a.702.702 0 0 0-.242.561c0 .22.077.407.242.561A.73.73 0 0 0 9.97 14z"></path>
      <circle cx="10" cy="10" r="8.35" stroke="#213245" stroke-width="1.3"></circle>
    </g>
  </symbol>
  <symbol xmlns="http://www.w3.org/2000/svg" viewBox="0 0 20 20" id="about">
    <g fill="none" fill-rule="evenodd">
      <path fill="#40474F" fill-rule="nonzero" d="M10 8c.295 0 .535-.09.72-.268.187-.18.28-.421.28-.725 0-.313-.093-.56-.28-.739C10.536 6.09 10.296 6 10 6s-.535.09-.72.268c-.187.18-.28.426-.28.739 0 .304.093.546.28.725.185.179.425.268.72.268zm1.5 6v-.38a1.934 1.934 0 0 0-.326-.133 4.854 4.854 0 0 0-.391-.102V9h-.37a16.358 16.358 0 0 0-.989.132c-.181.03-.353.063-.516.102-.163.04-.3.079-.408.118v.38l.717.079v3.574a5.538 5.538 0 0 0-.38.102c-.116.036-.228.08-.337.132V14h3z"></path>
      <circle cx="10" cy="10" r="8.35" stroke="#213245" stroke-width="1.3"></circle>
    </g>
  </symbol>
  <symbol xmlns="http://www.w3.org/2000/svg" viewBox="0 0 20 20" id="incognito">
    <path fill="#40474F" fill-rule="evenodd" d="M3.275 14.069l.894-.888A8.762 8.762 0 0 1 1.919 10C3.187 6.831 6.687 4.375 10 4.375a7.725 7.725 0 0 1 2.5.45l.969-.975A9.216 9.216 0 0 0 10 3.125 10.433 10.433 0 0 0 .662 9.787a.62.62 0 0 0 0 .425 10 10 0 0 0 2.613 3.857zM7.5 9.83a2.498 2.498 0 0 1 2.313-2.31l1.13-1.138a3.749 3.749 0 0 0-4.58 4.582L7.5 9.83zm11.837-.043a10.237 10.237 0 0 0-3.587-4.65l3-3.007-.881-.881L1.25 17.869l.881.881 3.188-3.188A9.555 9.555 0 0 0 10 16.875a10.43 10.43 0 0 0 9.337-6.662.62.62 0 0 0 0-.425zM12.5 10a2.501 2.501 0 0 1-3.75 2.15l3.4-3.4c.225.379.345.81.35 1.25zM10 15.625a8.155 8.155 0 0 1-3.75-.988l1.588-1.587a3.749 3.749 0 0 0 5.219-5.219l1.793-1.794A9.087 9.087 0 0 1 18.081 10c-1.268 3.169-4.768 5.625-8.081 5.625z"></path>
  </symbol>
  <symbol xmlns="http://www.w3.org/2000/svg" viewBox="0 0 20 20" id="plus">
    <path fill="#FF6400" fill-rule="evenodd" d="M10.155 1l-.047.133c-.114.359-.355 1.374.279 2.136.825 1.029 2.367 2.6 3.422 4.913.027-.483.516-.98.993-1.387l.536-.438c.917-.772 1.284-.772 1.284-.772l-.046.085c-.162.308-.679 1.404-.367 2.315.367 1.114.872 3.214.78 4.5.045 1.747-.681 3.435-2.008 4.667-1.25 1.16-2.928 1.82-4.68 1.848l-.33-.002C5.431 18.998 3 16.084 3 12.485c.04-1.11.353-2.195.917-3.172.826-1.5.046-3.6-.412-3.728l.149.04c.491.145 2.043.72 2.236 2.231.92-.62 1.494-1.597 1.559-2.657.275-1.928 1.1-3.556 2.706-4.199zm-.93 3.21l-.044.133a6.5 6.5 0 0 0-.184.773l-.043.266-.015.169c-.156 1.317-.861 2.52-1.956 3.344l-.224.16c-.367.247-.79.312-1.175.234l-.03-.007-.046.145c-.05.14-.105.275-.167.405l-.099.193a5.36 5.36 0 0 0-.725 2.46c0 3.042 2.003 5.05 5.5 5.051 1.464.042 2.88-.48 3.912-1.438.954-.885 1.502-2.07 1.543-3.31l.004-.404c.05-.692-.152-1.931-.448-3.057l-.053-.196-.007.01c-.633.706-1.935.712-2.478-.235l-.07-.135c-.35-.767-.78-1.491-1.299-2.215a19.528 19.528 0 0 0-.79-1.023L9.226 4.21z"></path>
  </symbol>
  <symbol xmlns="http://www.w3.org/2000/svg" viewBox="0 0 20 20" id="alert">
    <path fill="#40474F" fill-rule="evenodd" d="M10.83 3.106c.193.097.35.253.446.447l6.382 12.764a1 1 0 0 1-.894 1.447H4a1 1 0 0 1-.894-1.447L9.488 3.553a1 1 0 0 1 1.341-.447zm-.448 1.565L4.485 16.464h11.793L10.382 4.671zm0 9.093c.31 0 .553.096.732.288.179.191.268.432.268.724 0 .28-.087.516-.26.705-.175.189-.421.283-.74.283s-.565-.094-.74-.283a1.007 1.007 0 0 1-.26-.705c0-.292.09-.533.268-.724.179-.192.423-.288.732-.288zm.75-6l-.14 5H9.766l-.135-5h1.5z"></path>
  </symbol>
  <symbol xmlns="http://www.w3.org/2000/svg" viewBox="0 0 20 20" id="add">
    <path fill="#40474F" fill-rule="evenodd" d="M10.05 3a.65.65 0 0 1 .65.65v5.749l5.65.001a.65.65 0 1 1 0 1.3l-5.65-.001v5.651a.65.65 0 1 1-1.3 0v-5.651l-5.75.001a.65.65 0 1 1 0-1.3l5.75-.001V3.65a.65.65 0 0 1 .65-.65z"></path>
  </symbol>
  <symbol xmlns="http://www.w3.org/2000/svg" viewBox="0 0 20 20" id="debug">
    <g fill="none" fill-rule="evenodd"><path d="M15 7.65L4.65 8v7c0 .925.375 1.763.981 2.369A3.34 3.34 0 008 18.35h4a3.34 3.34 0 002.369-.981A3.34 3.34 0 0015.35 15L15 7.65zM11 3.65H9a4.336 4.336 0 00-3.076 1.274A4.338 4.338 0 004.7 7.337l10.566-.19a4.343 4.343 0 00-1.258-2.29A4.335 4.335 0 0011 3.65z" stroke="#40474F" stroke-width="1.3"/><rect fill="#40474F" x="7" y="1" width="1.3" height="3" rx=".65"/><rect fill="#40474F" x="9.35" y="7" width="1.3" height="11" rx=".65"/><rect fill="#40474F" x="12" y="1" width="1.3" height="3" rx=".65"/><rect fill="#40474F" x="1" y="7" width="4" height="1.3" rx=".65"/><rect fill="#40474F" x="15" y="7" width="4" height="1.3" rx=".65"/><rect fill="#40474F" x="1" y="11" width="4" height="1.3" rx=".65"/><rect fill="#40474F" x="15" y="11" width="4" height="1.3" rx=".65"/><rect fill="#40474F" x="1" y="15" width="4" height="1.3" rx=".65"/><rect fill="#40474F" x="15" y="15" width="4" height="1.3" rx=".65"/></g>
  </symbol>
</svg>
