<svg xmlns="http://www.w3.org/2000/svg" width="32" height="44" viewBox="0 0 32 44">
    <path fill="#FAFCFF" fill-rule="evenodd" d="M16.34 0c-.063.16-1.254 3.263.549 5.651l.166.213c1.961 2.447 6.65 6.05 9.027 11.586l.027-.29c.18-1.54.914-2.967 2.07-4.01l.202-.174c1.903-1.628 2.697-1.676 2.697-1.676-.093.173-1.726 3.272-.9 5.85l.1.322c.835 2.768 1.89 7.6 1.7 10.629l-.003.312C31.822 37.019 25.368 44 15.938 44l-.372-.003C5.461 43.827 0 36.745 0 28.1l.015-.48c.116-2.56.81-5.064 2.033-7.32l.11-.22c1.768-3.678.019-8.587-1.01-8.93.211.05 5.008 1.244 5.497 5.55.135-.08 3.01-1.856 3.546-6.45.554-4.7 2.453-8.65 6.149-10.251zM5.707 29.22H4l.007.3C4.228 35.9 9.516 40.992 15.999 41c6.585-.005 11.938-5.26 12.001-11.78h-1.707l-.009.282c-.248 5.447-4.747 9.787-10.285 9.857-5.634-.072-10.19-4.562-10.292-10.14zM21.673 23c-1.246 0-2.259 1.381-2.259 3.083 0 1.702 1.013 3.083 2.259 3.083s2.259-1.38 2.259-3.083c0-1.703-1.01-3.083-2.259-3.083zm-11.398 0c-1.246 0-2.259 1.381-2.259 3.083 0 1.702 1.013 3.083 2.26 3.083 1.246 0 2.259-1.38 2.259-3.083 0-1.703-1.012-3.083-2.26-3.083z" opacity=".45"/>
</svg>
